<?xml version="1.0" encoding="UTF-8"?>
<svg width="818px" height="818px" viewBox="0 0 818 818" version="1.1" xmlns="http://www.w3.org/2000/svg" xmlns:xlink="http://www.w3.org/1999/xlink">
    <!-- Generator: Sketch 52.5 (67469) - http://www.bohemiancoding.com/sketch -->
    <title>Artboard</title>
    <desc>Created with Sketch.</desc>
    <defs>
        <circle id="path-1" cx="409.5" cy="409.5" r="369.5"></circle>
        <filter x="-3.5%" y="-3.2%" width="108.7%" height="108.7%" filterUnits="objectBoundingBox" id="filter-2">
            <feMorphology radius="4" operator="dilate" in="SourceAlpha" result="shadowSpreadOuter1"></feMorphology>
            <feOffset dx="6" dy="8" in="shadowSpreadOuter1" result="shadowOffsetOuter1"></feOffset>
            <feGaussianBlur stdDeviation="8" in="shadowOffsetOuter1" result="shadowBlurOuter1"></feGaussianBlur>
            <feComposite in="shadowBlurOuter1" in2="SourceAlpha" operator="out" result="shadowBlurOuter1"></feComposite>
            <feColorMatrix values="0 0 0 0 0   0 0 0 0 0   0 0 0 0 0  0 0 0 0.18 0" type="matrix" in="shadowBlurOuter1"></feColorMatrix>
        </filter>
        <path d="M307,614 C137.448582,614 0,476.551418 0,307 C0,137.448582 137.448582,0 307,0 C476.551418,0 614,137.448582 614,307 C614,476.551418 476.551418,614 307,614 Z M305.502439,92.8487805 C281.31456,92.8487805 261.256319,112.574379 261.256319,137.010568 C261.256319,161.446757 281.31456,181.466767 305.502439,181.466767 C329.985292,181.466767 349.748559,161.446757 349.748559,137.010568 C349.748559,112.574379 329.985292,92.8487805 305.502439,92.8487805 Z M110.819512,232.988853 C110.819512,252.125627 242.967923,274.206521 242.967923,274.206521 C242.967923,274.206521 193.117295,513.857821 211.700665,520.923707 C229.989061,527.989593 305.502439,368.123923 305.502439,368.123923 C305.502439,368.123923 381.310791,527.989593 399.599187,520.923707 C418.182557,513.857821 368.331929,274.206521 368.331929,274.206521 C368.331929,274.206521 500.185366,252.125627 500.185366,232.988853 C500.185366,213.852078 305.502439,210.613547 305.502439,210.613547 C305.502439,210.613547 110.819512,213.852078 110.819512,232.988853 Z" id="path-3"></path>
        <filter x="-3.6%" y="-3.3%" width="109.1%" height="109.1%" filterUnits="objectBoundingBox" id="filter-4">
            <feOffset dx="6" dy="8" in="SourceAlpha" result="shadowOffsetOuter1"></feOffset>
            <feGaussianBlur stdDeviation="8" in="shadowOffsetOuter1" result="shadowBlurOuter1"></feGaussianBlur>
            <feColorMatrix values="0 0 0 0 0   0 0 0 0 0   0 0 0 0 0  0 0 0 0.08 0" type="matrix" in="shadowBlurOuter1"></feColorMatrix>
        </filter>
    </defs>
    <g id="Artboard" stroke="none" stroke-width="1" fill="none" fill-rule="evenodd">
        <g id="Oval">
            <use fill="black" fill-opacity="1" filter="url(#filter-2)" xlink:href="#path-1"></use>
            <use stroke="#1E7AB9" stroke-width="8" fill="#FFFFFF" fill-rule="evenodd" xlink:href="#path-1"></use>
        </g>
        <path d="M328.846154,743.769231 L324.62889,731.769231 L320.538462,743.769231 L328.846154,743.769231 Z M322.972028,729.923077 L325.06993,729.923077 L333.461538,751.753509 L331.492738,752.076923 L328.910705,745.317574 L319.324906,745.317574 L316.90425,751.915216 L315,751.915216 L322.972028,729.923077 Z M348.314685,750.048322 L348.986014,751.592804 C348.538459,751.867381 348.001402,752.113351 347.374825,752.330724 C346.748249,752.548097 346.121681,752.713984 345.495105,752.828391 C344.868528,752.942798 344.320282,753 343.85035,753 C342.261531,753 340.896509,752.622464 339.755245,751.867379 C338.61398,751.112295 337.741262,750.065489 337.137063,748.726931 C336.532864,747.388372 336.230769,745.861065 336.230769,744.144965 C336.253147,742.474627 336.583214,740.987362 337.220979,739.683125 C337.858744,738.378889 338.765029,737.349244 339.93986,736.594159 C341.114691,735.839075 342.496496,735.461538 344.085315,735.461538 C344.532869,735.461538 345.069927,735.524461 345.696503,735.650309 C346.32308,735.776156 346.949647,735.942043 347.576224,736.147975 C348.2028,736.353907 348.728669,736.605598 349.153846,736.903056 L348.482517,738.413217 C347.923074,738.138641 347.324479,737.875509 346.686713,737.623815 C346.048948,737.37212 345.148258,737.246274 343.984615,737.246274 C342.798595,737.246274 341.786018,737.549448 340.946853,738.155803 C340.107688,738.762159 339.469932,739.580154 339.033566,740.609815 C338.597201,741.639475 338.367832,742.806406 338.345455,744.110643 C338.345455,745.460642 338.546851,746.673335 338.94965,747.748758 C339.35245,748.824181 339.962234,749.670778 340.779021,750.288574 C341.595808,750.906371 342.608386,751.215264 343.816783,751.215264 C345.002803,751.215264 345.903493,751.095139 346.518881,750.854885 C347.134269,750.614631 347.732864,750.345779 348.314685,750.048322 Z M362.160839,750.048322 L362.832168,751.592804 C362.384613,751.867381 361.847556,752.113351 361.220979,752.330724 C360.594402,752.548097 359.967835,752.713984 359.341259,752.828391 C358.714682,752.942798 358.166436,753 357.696503,753 C356.107684,753 354.742663,752.622464 353.601399,751.867379 C352.460134,751.112295 351.587416,750.065489 350.983217,748.726931 C350.379018,747.388372 350.076923,745.861065 350.076923,744.144965 C350.099301,742.474627 350.429367,740.987362 351.067133,739.683125 C351.704898,738.378889 352.611183,737.349244 353.786014,736.594159 C354.960845,735.839075 356.342649,735.461538 357.931469,735.461538 C358.379023,735.461538 358.916081,735.524461 359.542657,735.650309 C360.169234,735.776156 360.795801,735.942043 361.422378,736.147975 C362.048954,736.353907 362.574823,736.605598 363,736.903056 L362.328671,738.413217 C361.769228,738.138641 361.170633,737.875509 360.532867,737.623815 C359.895102,737.37212 358.994411,737.246274 357.830769,737.246274 C356.644749,737.246274 355.632172,737.549448 354.793007,738.155803 C353.953842,738.762159 353.316086,739.580154 352.87972,740.609815 C352.443354,741.639475 352.213986,742.806406 352.191608,744.110643 C352.191608,745.460642 352.393005,746.673335 352.795804,747.748758 C353.198603,748.824181 353.808388,749.670778 354.625175,750.288574 C355.441962,750.906371 356.454539,751.215264 357.662937,751.215264 C358.848957,751.215264 359.749647,751.095139 360.365035,750.854885 C360.980423,750.614631 361.579018,750.345779 362.160839,750.048322 Z M378.692308,744.350896 L366.12275,744.350896 C366.146027,745.678014 366.361336,746.862105 366.768685,747.903206 C367.176034,748.944307 367.839421,749.768023 368.758865,750.374379 C369.67831,750.980735 370.894519,751.283908 372.407529,751.283908 C373.385166,751.283908 374.298777,751.152342 375.148391,750.889207 C375.998004,750.626071 376.853424,750.277136 377.714675,749.84239 L378.4479,751.421195 C377.912527,751.695771 377.353885,751.953183 376.771959,752.193437 C376.190032,752.433691 375.555741,752.628179 374.869067,752.776908 C374.182393,752.925637 373.396804,753 372.512275,753 C370.557001,753 368.945087,752.622464 367.676487,751.867379 C366.407886,751.112295 365.465179,750.065489 364.848336,748.726931 C364.231494,747.388372 363.923077,745.861065 363.923077,744.144965 C363.946354,742.474627 364.248951,740.987362 364.830878,739.683125 C365.412805,738.378889 366.274044,737.349244 367.414621,736.594159 C368.555198,735.839075 369.951801,735.461538 371.604474,735.461538 C373.257146,735.461538 374.601377,735.839075 375.637207,736.594159 C376.673037,737.349244 377.441169,738.384609 377.941626,739.700286 C378.442083,741.015963 378.692308,742.508948 378.692308,744.179286 L378.692308,744.350896 Z M366.692308,742.846154 L376.846154,742.846154 C376.754367,741.765473 376.530641,740.808635 376.174967,739.97561 C375.819294,739.142585 375.297266,738.489683 374.608866,738.016886 C373.920466,737.544088 373.02556,737.307692 371.92412,737.307692 C370.82268,737.307692 369.904828,737.544088 369.170535,738.016886 C368.436241,738.489683 367.86832,739.142585 367.466754,739.97561 C367.065187,740.808635 366.807041,741.765473 366.692308,742.846154 Z M380.67679,751.69577 L381.368433,750.116965 C381.78342,750.322897 382.232984,750.511666 382.717136,750.683276 C383.201288,750.854886 383.720015,750.997892 384.273332,751.112299 C384.826649,751.226705 385.391485,751.283908 385.967856,751.283908 C386.890051,751.283908 387.691196,751.180943 388.371315,750.975011 C389.051433,750.769079 389.581687,750.454465 389.962093,750.031161 C390.342498,749.607856 390.532698,749.087313 390.532698,748.469517 C390.532698,747.920365 390.319443,747.428423 389.892928,746.993678 C389.466413,746.558932 388.907341,746.169955 388.215695,745.826735 C387.524049,745.483515 386.774777,745.174621 385.967856,744.900045 C385.091771,744.602588 384.238754,744.247932 383.408779,743.836068 C382.578803,743.424204 381.892931,742.909381 381.351142,742.291585 C380.809352,741.673789 380.538462,740.930156 380.538462,740.060665 C380.538462,738.619141 381.09177,737.492252 382.198404,736.679964 C383.305038,735.867676 384.803582,735.461538 386.694081,735.461538 C387.178233,735.461538 387.737306,735.518741 388.371315,735.633148 C389.005323,735.747554 389.633559,735.907721 390.256041,736.113653 C390.878522,736.319586 391.374195,736.559836 391.743072,736.834412 L391.05143,738.344573 C390.590332,738.11576 389.996678,737.864069 389.27045,737.589493 C388.544222,737.314917 387.662386,737.177631 386.624917,737.177631 C385.449118,737.177631 384.480828,737.435042 383.720018,737.949872 C382.959207,738.464702 382.578807,739.122531 382.578807,739.923378 C382.601862,740.701344 383.039898,741.336291 383.892928,741.82824 C384.745959,742.320189 385.760358,742.760648 386.936156,743.149631 C387.858351,743.46997 388.74595,743.864667 389.59898,744.333735 C390.45201,744.802802 391.155173,745.357667 391.70849,745.998344 C392.261807,746.639022 392.538462,747.405535 392.538462,748.297908 C392.538462,749.762314 391.967862,750.912084 390.826646,751.747253 C389.68543,752.582422 388.042795,753 385.898692,753 C385.437595,753 384.878522,752.948518 384.221459,752.845552 C383.564395,752.742586 382.918868,752.593859 382.284859,752.399368 C381.65085,752.204876 381.114833,751.970346 380.67679,751.69577 Z M394.522944,751.69577 L395.214587,750.116965 C395.629574,750.322897 396.079137,750.511666 396.56329,750.683276 C397.047442,750.854886 397.566169,750.997892 398.119486,751.112299 C398.672803,751.226705 399.237638,751.283908 399.81401,751.283908 C400.736205,751.283908 401.53735,751.180943 402.217468,750.975011 C402.897587,750.769079 403.427841,750.454465 403.808247,750.031161 C404.188652,749.607856 404.378852,749.087313 404.378852,748.469517 C404.378852,747.920365 404.165597,747.428423 403.739082,746.993678 C403.312567,746.558932 402.753495,746.169955 402.061849,745.826735 C401.370203,745.483515 400.620931,745.174621 399.81401,744.900045 C398.937925,744.602588 398.084908,744.247932 397.254932,743.836068 C396.424957,743.424204 395.739085,742.909381 395.197295,742.291585 C394.655506,741.673789 394.384615,740.930156 394.384615,740.060665 C394.384615,738.619141 394.937924,737.492252 396.044558,736.679964 C397.151192,735.867676 398.649736,735.461538 400.540235,735.461538 C401.024387,735.461538 401.583459,735.518741 402.217468,735.633148 C402.851477,735.747554 403.479713,735.907721 404.102195,736.113653 C404.724676,736.319586 405.220348,736.559836 405.589226,736.834412 L404.897584,738.344573 C404.436486,738.11576 403.842832,737.864069 403.116604,737.589493 C402.390375,737.314917 401.50854,737.177631 400.471071,737.177631 C399.295272,737.177631 398.326982,737.435042 397.566172,737.949872 C396.805361,738.464702 396.424961,739.122531 396.424961,739.923378 C396.448016,740.701344 396.886052,741.336291 397.739082,741.82824 C398.592112,742.320189 399.606512,742.760648 400.78231,743.149631 C401.704505,743.46997 402.592104,743.864667 403.445134,744.333735 C404.298164,744.802802 405.001327,745.357667 405.554644,745.998344 C406.107961,746.639022 406.384615,747.405535 406.384615,748.297908 C406.384615,749.762314 405.814016,750.912084 404.6728,751.747253 C403.531584,752.582422 401.888949,753 399.744846,753 C399.283749,753 398.724676,752.948518 398.067613,752.845552 C397.410549,752.742586 396.765022,752.593859 396.131013,752.399368 C395.497004,752.204876 394.960986,751.970346 394.522944,751.69577 Z M411.923077,752.076923 L409.153846,752.076923 L409.153846,735.461538 L411.923077,735.461538 L411.923077,752.076923 Z M410.980567,732.692308 C410.436435,732.692308 409.995953,732.51555 409.659109,732.162029 C409.322266,731.808509 409.153846,731.369888 409.153846,730.846154 C409.153846,730.32242 409.322266,729.883799 409.659109,729.530278 C409.995953,729.176758 410.436435,729 410.980567,729 C411.472877,729 411.906881,729.176758 412.282591,729.530278 C412.658301,729.883799 412.846154,730.32242 412.846154,730.846154 C412.846154,731.369888 412.658301,731.808509 412.282591,732.162029 C411.906881,732.51555 411.472877,732.692308 410.980567,732.692308 Z M418.369727,752.076923 L416.538462,752.076923 L416.538462,729.326869 L419.307692,729 L419.307692,749.886903 L418.369727,752.076923 Z M418.173834,739.648803 L417.495457,738.10432 C417.947711,737.578049 418.456488,737.114709 419.021805,736.714286 C419.587122,736.313862 420.197655,736.004969 420.853422,735.787596 C421.50919,735.570223 422.18756,735.461538 422.888552,735.461538 C424.516665,735.461538 425.884711,735.833355 426.992732,736.576998 C428.100753,737.320642 428.943062,738.350287 429.519685,739.665964 C430.096308,740.981641 430.384615,742.508948 430.384615,744.24793 C430.384615,745.895387 430.085002,747.382652 429.485766,748.70977 C428.88653,750.036888 428.021609,751.083693 426.890975,751.850218 C425.760342,752.616743 424.380989,753 422.752877,753 C422.006659,753 421.316983,752.868434 420.683828,752.605299 C420.050673,752.342163 419.468406,752.010389 418.937008,751.609965 C418.40561,751.209542 417.913792,750.803404 417.461538,750.39154 L418.139915,749.018666 C418.705232,749.544937 419.338377,750.042599 420.03937,750.511666 C420.740363,750.980734 421.678775,751.215264 422.854634,751.215264 C424.075718,751.215264 425.081967,750.906371 425.87341,750.288574 C426.664854,749.670778 427.258427,748.835622 427.654149,747.78308 C428.049871,746.730538 428.247729,745.563607 428.247729,744.282252 C428.247729,742.909371 428.061177,741.696678 427.688068,740.644137 C427.314959,739.591595 426.738344,738.762159 425.958207,738.155803 C425.17807,737.549448 424.166168,737.246274 422.922471,737.246274 C421.837063,737.246274 420.921264,737.475084 420.175045,737.932711 C419.428827,738.390338 418.761763,738.962363 418.173834,739.648803 Z M435.923077,752.076923 L433.153846,752.076923 L433.153846,729.326869 L435.923077,729 L435.923077,752.076923 Z M453.461538,744.350896 L440.89198,744.350896 C440.915257,745.678014 441.130567,746.862105 441.537916,747.903206 C441.945265,748.944307 442.608652,749.768023 443.528096,750.374379 C444.447541,750.980735 445.663749,751.283908 447.176759,751.283908 C448.154397,751.283908 449.068008,751.152342 449.917621,750.889207 C450.767235,750.626071 451.622654,750.277136 452.483906,749.84239 L453.21713,751.421195 C452.681758,751.695771 452.123116,751.953183 451.541189,752.193437 C450.959262,752.433691 450.324972,752.628179 449.638298,752.776908 C448.951624,752.925637 448.166035,753 447.281506,753 C445.326231,753 443.714318,752.622464 442.445717,751.867379 C441.177117,751.112295 440.234409,750.065489 439.617567,748.726931 C439.000724,747.388372 438.692308,745.861065 438.692308,744.144965 C438.715585,742.474627 439.018182,740.987362 439.600109,739.683125 C440.182036,738.378889 441.043275,737.349244 442.183852,736.594159 C443.324428,735.839075 444.721032,735.461538 446.373704,735.461538 C448.026377,735.461538 449.370608,735.839075 450.406438,736.594159 C451.442267,737.349244 452.210399,738.384609 452.710857,739.700286 C453.211314,741.015963 453.461538,742.508948 453.461538,744.179286 L453.461538,744.350896 Z M441.461538,742.846154 L451.615385,742.846154 C451.523598,741.765473 451.299871,740.808635 450.944198,739.97561 C450.588525,739.142585 450.066496,738.489683 449.378096,738.016886 C448.689697,737.544088 447.79479,737.307692 446.693351,737.307692 C445.591911,737.307692 444.674058,737.544088 443.939765,738.016886 C443.205472,738.489683 442.637551,739.142585 442.235984,739.97561 C441.834418,740.808635 441.576272,741.765473 441.461538,742.846154 Z M483.923077,730.21246 L477.277754,752.076923 L473.988319,752.076923 L469.137233,735.357039 L464.385827,752.076923 L461.129618,752.076923 L454.384615,730.437535 L458.105996,729.923077 L462.824176,747.157419 L467.342996,730.21246 L471.064377,730.21246 L475.682876,747.157419 L480.201696,730.21246 L483.923077,730.21246 Z M491.133377,752.076923 L487.615385,752.076923 L487.615385,729.923077 L494.049191,729.923077 C495.591622,729.923077 496.996692,730.156559 498.264444,730.623529 C499.532195,731.0905 500.535817,731.839814 501.275338,732.871493 C502.01486,733.903173 502.384615,735.255195 502.384615,736.927602 C502.384615,738.165617 502.152198,739.240719 501.687356,740.152941 C501.222513,741.065163 500.583365,741.814477 499.769891,742.400905 C498.956417,742.987333 498.032029,743.421718 496.996699,743.704072 C495.961368,743.986427 494.883796,744.127602 493.763948,744.127602 L491.133377,744.127602 L491.133377,752.076923 Z M493.146089,732.692308 L490.384615,732.692308 L490.384615,741 L493.115061,741 C494.004529,741 494.790559,740.860984 495.473174,740.582947 C496.155789,740.304911 496.693599,739.860059 497.086619,739.248378 C497.47964,738.636698 497.707175,737.863767 497.769231,736.929564 C497.769231,735.861904 497.577895,735.022246 497.195217,734.410565 C496.812538,733.798885 496.285071,733.359594 495.612799,733.092678 C494.940527,732.825763 494.118298,732.692308 493.146089,732.692308 Z" id="AccessibleWP" fill="#1E7AB9"></path>
        <g id="Group" transform="translate(102.000000, 102.000000)">
            <g id="Combined-Shape">
                <use fill="black" fill-opacity="1" filter="url(#filter-4)" xlink:href="#path-3"></use>
                <use fill="#1E7AB9" fill-rule="evenodd" xlink:href="#path-3"></use>
            </g>
        </g>
    </g>
</svg>